<?xml version="1.0" encoding="UTF-8" standalone="no"?>
<!DOCTYPE svg PUBLIC "-//W3C//DTD SVG 1.1//EN"
 "http://www.w3.org/Graphics/SVG/1.1/DTD/svg11.dtd">
<!-- Generated by graphviz version 2.47.0 (20210316.0004)
 -->
<!-- Title: dependencies Pages: 1 -->
<svg width="1468pt" height="284pt"
 viewBox="0.00 0.00 1468.00 284.00" xmlns="http://www.w3.org/2000/svg" xmlns:xlink="http://www.w3.org/1999/xlink">
<g id="graph0" class="graph" transform="scale(1 1) rotate(0) translate(4 280)">
<title>dependencies</title>
<polygon fill="white" stroke="transparent" points="-4,4 -4,-280 1464,-280 1464,4 -4,4"/>
<text text-anchor="start" x="709.01" y="-42.4" font-family="Times-12" font-weight="bold" font-size="14.00">Legend</text>
<polygon fill="#ffffb3" stroke="transparent" points="496,-10 496,-30 516,-30 516,-10 496,-10"/>
<text text-anchor="start" x="519.63" y="-15.4" font-family="Times-12" font-size="14.00"> &#160;Declarations</text>
<polygon fill="#8dd3c7" stroke="transparent" points="609,-10 609,-30 629,-30 629,-10 609,-10"/>
<text text-anchor="start" x="632.73" y="-15.4" font-family="Times-12" font-size="14.00"> &#160;Module</text>
<polygon fill="#80b1d3" stroke="transparent" points="695,-10 695,-30 715,-30 715,-10 695,-10"/>
<text text-anchor="start" x="718.78" y="-15.4" font-family="Times-12" font-size="14.00"> &#160;Bootstrap</text>
<polygon fill="#fdb462" stroke="transparent" points="792,-10 792,-30 812,-30 812,-10 792,-10"/>
<text text-anchor="start" x="815.67" y="-15.4" font-family="Times-12" font-size="14.00"> &#160;Providers</text>
<polygon fill="#fb8072" stroke="transparent" points="888,-10 888,-30 908,-30 908,-10 888,-10"/>
<text text-anchor="start" x="911.73" y="-15.4" font-family="Times-12" font-size="14.00"> &#160;Exports</text>
<g id="clust1" class="cluster">
<title>cluster_AppModule</title>
<polygon fill="none" stroke="black" stroke-dasharray="1,5" points="8,-70 8,-268 1452,-268 1452,-70 8,-70"/>
</g>
<g id="clust14" class="cluster">
<title>cluster_AppModule_bootstrap</title>
<polygon fill="none" stroke="black" points="668,-208 668,-260 792,-260 792,-208 668,-208"/>
</g>
<g id="clust2" class="cluster">
<title>cluster_AppModule_declarations</title>
<polygon fill="none" stroke="black" points="168,-78 168,-130 1444,-130 1444,-78 168,-78"/>
</g>
<g id="clust12" class="cluster">
<title>cluster_AppModule_imports</title>
<polygon fill="none" stroke="black" points="16,-78 16,-130 160,-130 160,-78 16,-78"/>
</g>
<!-- AppComponent -->
<g id="node1" class="node">
<title>AppComponent</title>
<polygon fill="#ffffb3" stroke="black" points="1435.94,-122 1330.06,-122 1330.06,-86 1435.94,-86 1435.94,-122"/>
<text text-anchor="middle" x="1383" y="-99.8" font-family="Times,serif" font-size="14.00">AppComponent</text>
</g>
<!-- AppModule -->
<g id="node10" class="node">
<title>AppModule</title>
<polygon fill="#8dd3c7" stroke="black" points="771.66,-187 768.66,-191 747.66,-191 744.66,-187 688.34,-187 688.34,-151 771.66,-151 771.66,-187"/>
<text text-anchor="middle" x="730" y="-164.8" font-family="Times,serif" font-size="14.00">AppModule</text>
</g>
<!-- AppComponent&#45;&gt;AppModule -->
<g id="edge1" class="edge">
<title>AppComponent&#45;&gt;AppModule</title>
<path fill="none" stroke="black" d="M1383,-122.01C1383,-144.49 1383,-180 1383,-180 1383,-180 781.84,-180 781.84,-180"/>
<polygon fill="black" stroke="black" points="781.84,-176.5 771.84,-180 781.84,-183.5 781.84,-176.5"/>
</g>
<!-- CafeteriasComponent -->
<g id="node2" class="node">
<title>CafeteriasComponent</title>
<polygon fill="#ffffb3" stroke="black" points="1312.07,-122 1173.93,-122 1173.93,-86 1312.07,-86 1312.07,-122"/>
<text text-anchor="middle" x="1243" y="-99.8" font-family="Times,serif" font-size="14.00">CafeteriasComponent</text>
</g>
<!-- CafeteriasComponent&#45;&gt;AppModule -->
<g id="edge2" class="edge">
<title>CafeteriasComponent&#45;&gt;AppModule</title>
<path fill="none" stroke="black" d="M1243,-122.13C1243,-142.57 1243,-173 1243,-173 1243,-173 781.98,-173 781.98,-173"/>
<polygon fill="black" stroke="black" points="781.98,-169.5 771.98,-173 781.98,-176.5 781.98,-169.5"/>
</g>
<!-- DashboardComponent -->
<g id="node3" class="node">
<title>DashboardComponent</title>
<polygon fill="#ffffb3" stroke="black" points="1155.97,-122 1014.03,-122 1014.03,-86 1155.97,-86 1155.97,-122"/>
<text text-anchor="middle" x="1085" y="-99.8" font-family="Times,serif" font-size="14.00">DashboardComponent</text>
</g>
<!-- DashboardComponent&#45;&gt;AppModule -->
<g id="edge3" class="edge">
<title>DashboardComponent&#45;&gt;AppModule</title>
<path fill="none" stroke="black" d="M1085,-122.27C1085,-140.56 1085,-166 1085,-166 1085,-166 781.77,-166 781.77,-166"/>
<polygon fill="black" stroke="black" points="781.77,-162.5 771.77,-166 781.77,-169.5 781.77,-162.5"/>
</g>
<!-- FooterComponent -->
<g id="node4" class="node">
<title>FooterComponent</title>
<polygon fill="#ffffb3" stroke="black" points="995.88,-122 878.12,-122 878.12,-86 995.88,-86 995.88,-122"/>
<text text-anchor="middle" x="937" y="-99.8" font-family="Times,serif" font-size="14.00">FooterComponent</text>
</g>
<!-- FooterComponent&#45;&gt;AppModule -->
<g id="edge4" class="edge">
<title>FooterComponent&#45;&gt;AppModule</title>
<path fill="none" stroke="black" d="M937,-122.01C937,-138.05 937,-159 937,-159 937,-159 781.89,-159 781.89,-159"/>
<polygon fill="black" stroke="black" points="781.89,-155.5 771.89,-159 781.89,-162.5 781.89,-155.5"/>
</g>
<!-- HeaderComponent -->
<g id="node5" class="node">
<title>HeaderComponent</title>
<polygon fill="#ffffb3" stroke="black" points="859.74,-122 738.26,-122 738.26,-86 859.74,-86 859.74,-122"/>
<text text-anchor="middle" x="799" y="-99.8" font-family="Times,serif" font-size="14.00">HeaderComponent</text>
</g>
<!-- HeaderComponent&#45;&gt;AppModule -->
<g id="edge5" class="edge">
<title>HeaderComponent&#45;&gt;AppModule</title>
<path fill="none" stroke="black" d="M754.98,-122.11C754.98,-122.11 754.98,-140.99 754.98,-140.99"/>
<polygon fill="black" stroke="black" points="751.48,-140.99 754.98,-150.99 758.48,-140.99 751.48,-140.99"/>
</g>
<!-- HomeComponent -->
<g id="node6" class="node">
<title>HomeComponent</title>
<polygon fill="#ffffb3" stroke="black" points="719.55,-122 604.45,-122 604.45,-86 719.55,-86 719.55,-122"/>
<text text-anchor="middle" x="662" y="-99.8" font-family="Times,serif" font-size="14.00">HomeComponent</text>
</g>
<!-- HomeComponent&#45;&gt;AppModule -->
<g id="edge6" class="edge">
<title>HomeComponent&#45;&gt;AppModule</title>
<path fill="none" stroke="black" d="M703.97,-122.11C703.97,-122.11 703.97,-140.99 703.97,-140.99"/>
<polygon fill="black" stroke="black" points="700.47,-140.99 703.97,-150.99 707.47,-140.99 700.47,-140.99"/>
</g>
<!-- LoginComponent -->
<g id="node7" class="node">
<title>LoginComponent</title>
<polygon fill="#ffffb3" stroke="black" points="586.28,-122 471.72,-122 471.72,-86 586.28,-86 586.28,-122"/>
<text text-anchor="middle" x="529" y="-99.8" font-family="Times,serif" font-size="14.00">LoginComponent</text>
</g>
<!-- LoginComponent&#45;&gt;AppModule -->
<g id="edge7" class="edge">
<title>LoginComponent&#45;&gt;AppModule</title>
<path fill="none" stroke="black" d="M529,-122.01C529,-138.05 529,-159 529,-159 529,-159 677.86,-159 677.86,-159"/>
<polygon fill="black" stroke="black" points="677.86,-162.5 687.86,-159 677.86,-155.5 677.86,-162.5"/>
</g>
<!-- PremiosComponent -->
<g id="node8" class="node">
<title>PremiosComponent</title>
<polygon fill="#ffffb3" stroke="black" points="453.72,-122 326.28,-122 326.28,-86 453.72,-86 453.72,-122"/>
<text text-anchor="middle" x="390" y="-99.8" font-family="Times,serif" font-size="14.00">PremiosComponent</text>
</g>
<!-- PremiosComponent&#45;&gt;AppModule -->
<g id="edge8" class="edge">
<title>PremiosComponent&#45;&gt;AppModule</title>
<path fill="none" stroke="black" d="M390,-122.27C390,-140.56 390,-166 390,-166 390,-166 678.31,-166 678.31,-166"/>
<polygon fill="black" stroke="black" points="678.31,-169.5 688.31,-166 678.31,-162.5 678.31,-169.5"/>
</g>
<!-- ProductoComponent -->
<g id="node9" class="node">
<title>ProductoComponent</title>
<polygon fill="#ffffb3" stroke="black" points="307.88,-122 176.12,-122 176.12,-86 307.88,-86 307.88,-122"/>
<text text-anchor="middle" x="242" y="-99.8" font-family="Times,serif" font-size="14.00">ProductoComponent</text>
</g>
<!-- ProductoComponent&#45;&gt;AppModule -->
<g id="edge9" class="edge">
<title>ProductoComponent&#45;&gt;AppModule</title>
<path fill="none" stroke="black" d="M242,-122.13C242,-142.57 242,-173 242,-173 242,-173 677.97,-173 677.97,-173"/>
<polygon fill="black" stroke="black" points="677.97,-176.5 687.97,-173 677.97,-169.5 677.97,-176.5"/>
</g>
<!-- AppComponent  -->
<g id="node12" class="node">
<title>AppComponent </title>
<polygon fill="#80b1d3" stroke="black" points="784.44,-252 675.56,-252 675.56,-216 784.44,-216 784.44,-252"/>
<text text-anchor="middle" x="730" y="-229.8" font-family="Times,serif" font-size="14.00">AppComponent </text>
</g>
<!-- AppModule&#45;&gt;AppComponent  -->
<g id="edge11" class="edge">
<title>AppModule&#45;&gt;AppComponent </title>
<path fill="none" stroke="black" stroke-dasharray="1,5" d="M730,-187.11C730,-187.11 730,-205.99 730,-205.99"/>
<polygon fill="black" stroke="black" points="726.5,-205.99 730,-215.99 733.5,-205.99 726.5,-205.99"/>
</g>
<!-- AppRoutingModule -->
<g id="node11" class="node">
<title>AppRoutingModule</title>
<polygon fill="#8dd3c7" stroke="black" points="152.27,-122 149.27,-126 128.27,-126 125.27,-122 23.73,-122 23.73,-86 152.27,-86 152.27,-122"/>
<text text-anchor="middle" x="88" y="-99.8" font-family="Times,serif" font-size="14.00">AppRoutingModule</text>
</g>
<!-- AppRoutingModule&#45;&gt;AppModule -->
<g id="edge10" class="edge">
<title>AppRoutingModule&#45;&gt;AppModule</title>
<path fill="none" stroke="black" d="M88,-122.01C88,-144.49 88,-180 88,-180 88,-180 677.88,-180 677.88,-180"/>
<polygon fill="black" stroke="black" points="677.88,-183.5 687.88,-180 677.88,-176.5 677.88,-183.5"/>
</g>
</g>
</svg>
